<?xml version="1.0" standalone="no"?>
<!DOCTYPE svg PUBLIC "-//W3C//DTD SVG 1.1//EN" "http://www.w3.org/Graphics/SVG/1.1/DTD/svg11.dtd" >
<!--
2013-9-30: Created.
-->
<svg>
<metadata>
Created by iconfont
</metadata>
<defs>

<font id="iconfont" horiz-adv-x="1024" >
  <font-face
    font-family="iconfont"
    font-weight="500"
    font-stretch="normal"
    units-per-em="1024"
    ascent="896"
    descent="-128"
  />
    <missing-glyph />
    
    <glyph glyph-name="jia" unicode="&#58971;" d="M544.83 338.464l374.19-0.973c17.694-0.046 32.039 14.21 32.085 31.904 0.045 17.74-14.21 32.04-31.904 32.086l-374.258 0.995 0.566 372.561c0.022 17.627-14.256 31.995-31.95 32.041-17.672 0.022-32.018-14.278-32.064-31.973l-0.564-372.47-373.986 0.996c-17.695 0.045-32.04-14.21-32.086-31.904-0.022-8.849 3.552-16.903 9.368-22.719 5.769-5.77 13.734-9.345 22.537-9.367l374.076-0.996-0.565-375.955c-0.023-8.846 3.553-16.856 9.368-22.671 5.793-5.793 13.78-9.346 22.583-9.369 17.672-0.022 31.995 14.256 32.04 31.95L544.83 338.464 544.83 338.464z"  horiz-adv-x="1024" />

    
    <glyph glyph-name="previous" unicode="&#59274;" d="M803.584 761.408c-18.176 10.048-39.936 10.112-58.112 0L192 452.992l0 282.88c0 17.664-14.336 32-32 32S128 753.5360000000001 128 735.8720000000001l0-344.896C127.744 388.8 127.104 386.752 127.104 384.512S127.744 380.15999999999997 128 377.98400000000004l0-346.112c0-17.664 14.336-32 32-32s32 14.336 32 32L192 316.03200000000004l553.408-308.352C754.56 2.5599999999999454 764.48 0 774.528 0s19.968 2.56 29.056 7.616c18.176 10.112 28.992 28.224 28.992 48.576L832.576 712.896C832.576 733.12 821.76 751.232 803.584 761.408zM768.192 66.75199999999995L198.016 384.512 771.328 704 768.192 66.75199999999995z"  horiz-adv-x="1024" />

    
    <glyph glyph-name="next" unicode="&#59301;" d="M832 735.8720000000001c0 17.664-14.336 32-32 32S768 753.5360000000001 768 735.8720000000001l0-282.88L214.592 761.408c-18.176 10.112-39.936 10.048-58.112 0C138.24 751.232 127.424 733.12 127.424 712.832l0-656.64c0-20.224 10.816-38.464 29.056-48.576C165.568 2.5599999999999454 175.488 0 185.472 0s19.968 2.56 29.056 7.616L768 316.03200000000004l0-284.096c0-17.664 14.336-32 32-32s32 14.336 32 32L832 735.8720000000001zM191.808 66.75199999999995L188.672 704l573.312-319.488L191.808 66.75199999999995z"  horiz-adv-x="1024" />

    
    <glyph glyph-name="zanting" unicode="&#59311;" d="M288 768C270.336 768 256 753.664 256 736l0-768C256-49.664 270.336-64 288-64S320-49.664 320-32l0 768C320 753.664 305.664 768 288 768zM672 768C654.336 768 640 753.664 640 736l0-768c0-17.664 14.336-32 32-32s32 14.336 32 32l0 768C704 753.664 689.664 768 672 768z"  horiz-adv-x="1024" />

    
    <glyph glyph-name="bofang" unicode="&#59262;" d="M222.521003 731.670328l0-694.317349 543.891338 347.158674L222.521003 731.670328M178.355107 831.752744c5.207605 0 10.549264-1.178849 15.644305-3.729951l681.693844-416.160211c23.359011-11.698436 23.359011-43.00956 0-54.707996L193.999412-59.006649c-5.096065-2.543939-10.437723-3.715625-15.644305-3.715625-17.382902 0-33.235962 13.025665-33.235962 31.079856L145.119145 800.664701C145.118122 818.711729 160.956855 831.752744 178.355107 831.752744L178.355107 831.752744z"  horiz-adv-x="1024" />

    
    <glyph glyph-name="fanhui" unicode="&#58997;" d="M328.555136 380.412177l364.265028 364.265028c20.07399 20.049007 20.07399 52.553369 0 72.577393-20.024024 20.049007-52.528386 20.049007-72.577393 0L220.992263 418.028872c-20.024024-20.024024-20.024024-52.528386 0-72.577393 1.578929-1.578929 3.383306-2.83188 5.112534-4.160179 0.300796-0.325779 0.526243-0.701724 0.827039-1.027503l389.877663-389.877663c19.57293-19.57293 51.300418-19.57293 70.873148 0s19.57293 51.300418 0 70.873148L328.555136 380.412177z"  horiz-adv-x="1024" />

    
    <glyph glyph-name="yinyue" unicode="&#59008;" d="M179.2-128c-97.745 0-179.2 79.127-179.2 179.2s79.127 179.2 179.2 179.2c39.564 0 76.8-13.964 109.382-37.236l9.309-6.982v574.836c0 34.909 27.927 62.836 60.509 62.836l602.764 69.818c32.582 2.327 62.836-25.6 62.836-60.509v-672.582c0-48.873-18.618-93.091-53.527-125.673-32.582-32.582-79.127-51.2-125.673-51.2-97.745 0-179.2 79.127-179.2 179.2 0 97.745 79.127 179.2 179.2 179.2 39.564 0 79.127-13.964 109.382-37.236l9.309-6.982v311.855l-605.091-65.164v-493.382c-2.327-100.073-81.455-179.2-179.2-179.2zM179.2 167.564c-65.164 0-118.691-53.527-118.691-118.691s53.527-118.691 118.691-118.691 118.691 53.527 118.691 118.691c-2.327 67.491-53.527 118.691-118.691 118.691zM844.8 279.273c-65.164 0-118.691-53.527-118.691-118.691s53.527-118.691 118.691-118.691 118.691 53.527 118.691 118.691-53.527 118.691-118.691 118.691zM356.073 605.091l605.091 65.164v165.236l-598.109-69.818h-6.982v-160.582z"  horiz-adv-x="1024" />

    
    <glyph glyph-name="suiji" unicode="&#59394;" d="M726.6 122H594.4L458.8 384l135.6 262h132.2v-98.7l200 125-200 125V696H564.4L430.7 438.3 297.4 696h-200v-50h169.2l135.9-262-135.9-262H97.4v-50h200l133.3 257.7L564.4 72h162.2v-101.3l200 125-200 125z"  horiz-adv-x="1024" />

    
    <glyph glyph-name="xihuan" unicode="&#59171;" d="M711.281778 810.666667C632.888889 810.666667 560.241778 770.872889 512 705.422222 464.270222 770.901333 391.111111 810.666667 312.718222 810.666667 171.576889 810.666667 56.888889 683.975111 56.888889 528.4977779999999c0-92.672 40.988444-158.122667 74.211555-210.460445 96-152.348444 337.834667-341.333333 348.216889-349.184a52.024889 52.024889 0 0 1 65.365334 0c10.382222 7.850667 251.704889 197.376 348.216889 349.184C926.122667 370.37511099999995 967.111111 435.825778 967.111111 528.4977779999999 967.111111 683.975111 852.423111 810.666667 711.281778 810.666667z m115.683555-484.067556c-89.543111-124.586667-279.096889-266.808889-288.512-273.550222a49.265778 49.265778 0 0 0-29.326222-10.382222c-10.496 0-20.423111 3.128889-29.326222 10.382222-9.443556 6.741333-195.328 150.528-288.540445 278.755555C161.422222 378.48177799999996 113.777778 436.622222 113.777778 518.599111 113.777778 656.725333 191.260444 753.777778 318.520889 753.777778c70.684444 0 147.655111-66.958222 190.577778-125.098667C552.618667 686.819556 629.048889 753.777778 699.733333 753.777778 827.477333 753.777778 910.222222 656.725333 910.222222 518.627556c0-81.976889-52.906667-145.834667-83.256889-192.028445z"  horiz-adv-x="1024" />

    
    <glyph glyph-name="tuxiang" unicode="&#59172;" d="M844.75904 750.5510400000001A76.94336 76.94336 0 0 0 921.6 673.4848v-564.77696a76.94336 76.94336 0 0 0-76.84096-77.04576H179.24096A76.94336 76.94336 0 0 0 102.4 108.70784000000003V673.4848a76.94336 76.94336 0 0 0 76.84096 77.06624h665.51808z m-100.5568-337.14176c-22.46656 0-54.90688-19.53792-122.34752-71.8848l-33.15712-25.94816c-110.12096-85.85216-164.10624-115.75296-236.52352-115.75296-68.34176 0-131.76832 24.63744-188.33408 64.1024v-155.21792c0-7.92576 5.81632-14.4384 13.312-15.4624l2.08896-0.14336h665.51808a15.48288 15.48288 0 0 1 15.2576 13.49632l0.14336 2.10944V355.26656a30.59712 30.59712 0 0 0-11.14112 6.92224c-29.92128 28.99968-67.93216 51.22048-104.83712 51.22048z m100.5568 275.70176H179.24096a15.48288 15.48288 0 0 1-15.2576-13.49632L163.84 673.4848l0.02048-334.25408c3.2768-1.16736 6.41024-2.90816 9.25696-5.24288 53.76-44.2368 115.05664-72.72448 179.05664-72.72448 53.4528 0 100.74112 26.37824 199.39328 103.28064l20.6848 16.22016c90.58304 71.12704 127.63136 94.08512 171.9296 94.08512 42.88512 0 82.04288-16.71168 115.99872-41.69728L860.16 673.4848a15.54432 15.54432 0 0 1-13.312 15.48288l-2.08896 0.14336zM348.30336 609.28c56.6272 0 102.54336-46.03904 102.54336-102.83008 0-56.81152-45.91616-102.85056-102.54336-102.85056-56.6272 0-102.54336 46.03904-102.54336 102.85056C245.76 563.24096 291.67616 609.28 348.30336 609.28z m0-61.44A41.24672 41.24672 0 0 1 307.2 506.44992c0-22.91712 18.432-41.41056 41.10336-41.41056a41.24672 41.24672 0 0 1 41.10336 41.41056c0 22.89664-18.432 41.39008-41.10336 41.39008z"  horiz-adv-x="1024" />

    
    <glyph glyph-name="sousuo" unicode="&#59173;" d="M912.54784-16.527360000000044c12.0832 12.0832 12.0832 31.68256 0 43.76576l-196.93568 196.83328c-1.18784 1.18784-2.6624 1.67936-3.9936 2.64192a343.30624 343.30624 0 0 1 81.05984 221.9008C792.6784 639.13984 638.1568 793.6 447.52896 793.6 256.94208 793.6 102.4 639.13984 102.4 448.6144c0-190.54592 154.54208-344.9856 345.14944-344.9856 84.43904 0 161.6896 30.39232 221.65504 80.6912l1.6384-2.74432c0.3072-0.45056 0.6144-0.88064 1.024-1.26976l196.93568-196.83328c12.0832-12.0832 31.66208-12.0832 43.74528 0zM447.54944 165.0688C290.85696 165.0688 163.84 292.0448 163.84 448.6144 163.84 605.184 290.85696 732.16 447.52896 732.16c156.69248 0 283.70944-126.95552 283.70944-283.5456 0-64.94208-21.93408-126.3616-61.56288-176.16896l-5.05856-6.16448-16.0768-19.10784-18.82112-15.7696a282.112 282.112 0 0 0-174.08-66.21184l-8.0896-0.12288z"  horiz-adv-x="1024" />

    
    <glyph glyph-name="yinle" unicode="&#59174;" d="M852.45952 793.33376a17.2032 17.2032 0 0 0 11.83744-2.048c8.51968-1.47456 15.1552-8.27392 16.19968-16.73216l0.14336-2.3552v-544.768a19.2512 19.2512 0 0 0-0.8192-5.61152c0.53248-4.58752 0.8192-9.216 0.8192-13.94688 0-64.45056-53.49376-116.736-119.45984-116.736-65.98656 0-119.48032 52.28544-119.48032 116.736 0 64.47104 53.49376 116.77696 119.48032 116.77696 19.57888 0 38.07232-4.62848 54.3744-12.77952l5.34528-2.84672V592.62976L402.78016 520.3968v-409.74336a19.18976 19.18976 0 0 0-0.83968-5.632c0.53248-4.54656 0.8192-9.17504 0.8192-13.90592 0-64.47104-53.47328-116.736-119.45984-116.736C217.33376-25.600000000000023 163.84 26.644480000000044 163.84 91.13599999999997c0 64.47104 53.49376 116.736 119.45984 116.736 19.57888 0 38.0928-4.608 54.39488-12.75904l5.34528-2.8672v503.808c0 9.95328 7.5776 18.14528 17.55136 19.2512l2.33472 0.14336h16.26112l2.02752 0.67584 2.10944 0.47104L833.3312 790.2208c1.536 0.57344 3.15392 0.98304 4.87424 1.20832l2.60096 0.16384h1.08544l10.56768 1.7408zM283.32032 146.43200000000002c-32.3584 0-58.04032-25.088-58.04032-55.296 0-30.22848 25.66144-55.296 58.01984-55.296 32.3584 0 58.04032 25.06752 58.04032 55.296l-0.1024 3.2768-0.3072 3.2768-1.536 12.86144 1.92512 6.38976v5.67296l-28.54912 16.1792a59.06432 59.06432 0 0 1-24.94464 7.4752l-4.5056 0.16384z m477.85984 116.77696c-32.3584 0-58.04032-25.10848-58.04032-55.33696 0-30.208 25.68192-55.296 58.04032-55.296S819.2 177.664 819.2 207.87199999999996l-0.1024 3.29728-0.3072 3.3792-1.51552 12.77952 1.92512 6.43072v5.69344l-28.4672 16.05632a59.63776 59.63776 0 0 1-25.04704 7.53664l-4.5056 0.16384zM819.2 725.6678400000001l-414.72-67.87072v-74.73152L819.2 654.68416V725.6678400000001z"  horiz-adv-x="1024" />

    
    <glyph glyph-name="wode" unicode="&#59175;" d="M511.63136 824.3199999999999c133.30432 0 242.9952-110.3872 242.9952-244.3264 0-85.77024-44.97408-161.87392-112.31232-205.53728 30.1056-8.8064 57.18016-20.02944 77.74208-32.17408l5.44768-3.33824c109.40416-66.1504 182.64064-170.2912 205.76256-294.07232 0.26624-1.9456 0.45056-3.8912 0.53248-5.81632l0.04096-2.90816-0.2048-3.50208a64.57344 64.57344 0 0 0-8.66304-37.23264l-2.53952-4.13696-2.53952-3.60448c-9.37984-12.57472-23.3472-20.35712-39.66976-22.81472l-4.5056-0.53248-4.46464-0.16384H154.91072c-17.57184 0-34.57024 7.04512-46.08 20.33664l-1.2288 1.536-1.24928 1.37216c-10.60864 12.32896-15.1552 28.40576-14.06976 44.11392l0.45056 4.25984 0.65536 3.91168C124.19072 199.67999999999995 236.2368 326.47168 380.3136 374.90688c-66.9696 43.70432-111.67744 119.6032-111.67744 205.08672 0 133.9392 109.69088 244.3264 242.9952 244.3264z m-13.84448-490.04544l-6.41024-0.06144-1.88416-0.06144-3.76832-0.26624c-160.72704-11.79648-295.46496-133.5296-330.52672-298.45504l-1.65888-8.192c-0.08192-0.12288-0.18432-0.12288-0.4096 0.04096L152.7808 27.648000000000025l2.78528-3.23584-0.79872 1.024c-0.06144 0.06144-0.08192 0.12288-0.04096 0.14336l0.2048 0.04096 712.94976-0.04096 1.57696 0.06144 0.49152 0.8192 0.3072 0.79872 0.12288 0.69632-0.04096 0.67584-0.65536 4.79232 0.59392 3.39968-1.26976 6.36928c-20.15232 95.8464-76.47232 177.90976-160.70656 233.92256l-7.74144 5.0176-7.43424 4.608c-26.07104 16.5888-70.94272 32.39936-119.05024 40.46848l-8.02816 1.26976a414.24896 414.24896 0 0 1-68.25984 5.81632zM511.63136 762.88c-99.28704 0-181.5552-82.80064-181.5552-182.8864 0-100.10624 82.26816-182.8864 181.5552-182.8864s181.5552 82.78016 181.5552 182.8864c0 100.08576-82.26816 182.8864-181.5552 182.8864z"  horiz-adv-x="1024" />

    
    <glyph glyph-name="FM_weixuanze" unicode="&#59176;" d="M404.02944 802.46784c27.136-28.0576 28.09856-72.0896 2.62144-100.864l-2.92864-3.13344-84.82816-85.21728h560.5376c37.82656 0 69.36576-29.4912 72.62208-65.9456l0.22528-3.80928 0.04096-526.2336a73.6256 73.6256 0 0 0-69.46816-73.48224l-3.8912-0.1024H145.01888a73.60512 73.60512 0 0 0-73.25696 69.67296l-0.1024 3.8912V518.49216c0.14336 33.93536 6.36928 61.5424 28.61056 83.72224l2.58048 2.4576 196.95616 198.41024a73.8304 73.8304 0 0 0 104.20224-0.6144zM344.7808 760.832l-1.67936-1.37216-196.62848-198.10304-1.26976-1.2288c-7.80288-6.98368-11.42784-20.04992-12.00128-37.35552l-0.08192-4.42368v-501.08416c0-6.00064 4.44416-11.03872 10.0352-11.9808l1.88416-0.16384h733.9008a12.14464 12.14464 0 0 1 11.776 10.19904l0.16384 1.9456V540.2624a11.81696 11.81696 0 0 1-9.6256 11.3664l-1.8432 0.14336H245.02272c-26.37824 0-40.07936 30.78144-23.6544 50.33984l1.88416 2.048 136.92928 137.6256a12.75904 12.75904 0 0 1 0 17.6128 12.20608 12.20608 0 0 1-15.38048 1.41312z m-16.384-345.21088c78.1312 0 141.59872-63.7952 141.59872-142.15168 0-78.70464-63.32416-142.17216-141.59872-142.17216-78.21312 0-141.57824 63.8976-141.57824 142.6432 0 77.96736 63.54944 141.68064 141.57824 141.68064z m461.0048-210.7392c14.21312 0 25.6-11.42784 25.6-25.7024 0-14.29504-11.38688-25.72288-25.6-25.72288h-222.208c-14.21312 0-25.6 11.42784-25.6 25.72288 0 14.27456 11.38688 25.7024 25.6 25.7024h222.208z m-461.0048 149.2992a80.4864 80.4864 0 0 1-80.13824-80.24064c0-44.93312 35.96288-81.2032 80.13824-81.2032 44.29824 0 80.15872 35.92192 80.15872 80.73216 0 44.48256-36.0448 80.6912-80.15872 80.6912z m461.0048 24.9856c14.21312 0 25.6-11.8784 25.6-25.7024 0-14.29504-11.38688-25.72288-25.6-25.72288h-222.208c-14.21312 0-25.6 11.42784-25.6 25.72288s11.38688 25.72288 25.6 25.72288h222.208z"  horiz-adv-x="1024" />

    
    <glyph glyph-name="xunhuan" unicode="&#59177;" d="M943.985778 155.42044399999997a34.759111 34.759111 0 0 1-47.872-10.410666c-106.183111-164.522667-312.888889-241.550222-502.471111-187.306667C226.588444 5.461332999999968 103.424 146.37511099999995 75.377778 312.746667l131.299555-88.064a35.100444 35.100444 0 0 1 48.241778 9.159111 34.417778 34.417778 0 0 1-9.272889 47.758222L54.044444 410.055111a35.470222 35.470222 0 0 1-6.115555 3.299556 35.413333 35.413333 0 0 1-4.636445 1.393777c-0.568889 0.113778-1.137778 0.455111-1.848888 0.568889a34.503111 34.503111 0 0 1-6.826667 0.682667h-0.113778c-0.711111 0-1.393778-0.227556-2.076444-0.227556-1.507556-0.113778-3.128889-0.227556-4.636445-0.455111-1.052444-0.227556-1.991111-0.568889-3.015111-0.910222-1.137778-0.341333-2.417778-0.682667-3.584-1.137778-0.796444-0.369778-1.507556-0.824889-2.304-1.137777-1.28-0.711111-2.56-1.28-3.697778-2.076445-0.483556-0.341333-0.824889-0.682667-1.28-1.052444-1.393778-1.024-2.787556-2.048-3.925333-3.299556l-0.341333-0.455111c-1.28-1.393778-2.673778-2.759111-3.697778-4.352-4.067556-5.973333-5.916444-12.714667-5.916445-19.342222v-0.142222c1.393778-225.507556 155.335111-426.894222 374.442667-489.528889 218.965333-62.606222 457.585778 26.225778 580.209778 216.263111a34.190222 34.190222 0 0 1-10.666667 47.274666zM1024 386.588444v0.113778c-1.507556 225.393778-155.448889 426.666667-374.385778 489.415111C430.648889 938.723556 192.170667 849.891556 69.404444 659.911111a34.304 34.304 0 0 1 10.524445-47.502222 34.844444 34.844444 0 0 1 47.872 10.410667c106.325333 164.551111 312.888889 241.493333 502.471111 187.192888C797.297778 762.311111 920.462222 621.6248889999999 948.593778 455.395556l-131.271111 88.064a34.929778 34.929778 0 0 1-48.128-9.159112 34.417778 34.417778 0 0 1 9.244444-47.758222l191.544889-128.455111s0.113778 0 0.113778-0.113778c1.848889-1.137778 3.697778-2.161778 5.774222-3.072 1.735111-0.711111 3.612444-1.28 5.461333-1.706666 0.455111-0.142222 0.910222-0.369778 1.365334-0.483556 2.332444-0.455111 4.522667-0.682667 6.826666-0.682667h0.113778c0.711111 0 1.422222 0.227556 2.104889 0.227556 1.479111 0.113778 2.986667 0.227556 4.494222 0.455111 1.052444 0.227556 1.991111 0.568889 3.015111 0.910222 1.137778 0.341333 2.417778 0.682667 3.584 1.137778 0.796444 0.369778 1.507556 0.824889 2.304 1.137778 1.28 0.711111 2.56 1.28 3.697778 2.076444 0.483556 0.341333 0.824889 0.682667 1.28 1.052445a27.306667 27.306667 0 0 1 3.925333 3.299555c0.113778 0.113778 0.227556 0.341333 0.369778 0.455111 1.251556 1.393778 2.645333 2.759111 3.697778 4.352 4.039111 6.087111 5.888 12.828444 5.888 19.484445z"  horiz-adv-x="1024" />

    
    <glyph glyph-name="tianjiabukedian" unicode="&#59178;" d="M512 896c282.766222 0 512-229.233778 512-512s-229.233778-512-512-512S0 101.233778 0 384 229.233778 896 512 896z m0-85.333333C276.366222 810.666667 85.333333 619.633778 85.333333 384c0-235.633778 191.032889-426.666667 426.666667-426.666667 235.633778 0 426.666667 191.032889 426.666667 426.666667 0 235.633778-191.032889 426.666667-426.666667 426.666667z m14.222222-170.666667a42.666667 42.666667 0 0 0 42.666667-42.666667V412.444444h184.888889a42.666667 42.666667 0 0 0 0-85.333333H568.888889v-184.888889a42.666667 42.666667 0 0 0-85.333333 0V327.111111h-184.888889a42.666667 42.666667 0 0 0 0 85.333333H483.555556v184.888889A42.666667 42.666667 0 0 0 526.222222 640z"  horiz-adv-x="1024" />

    
    <glyph glyph-name="list" unicode="&#59179;" d="M241.777778-42.66666699999996a42.666667 42.666667 0 0 0 0-85.333333h-199.111111a42.666667 42.666667 0 0 0 0 85.333333h199.111111z m227.555555 483.555556a42.666667 42.666667 0 0 0 0-85.333333h-426.666666a42.666667 42.666667 0 0 0 0 85.333333h426.666666z m341.333334 455.111111a42.666667 42.666667 0 0 0 0-85.333333h-768a42.666667 42.666667 0 0 0 0 85.333333h768zM824.888889 611.783111m28.444444 0l28.444445 0q28.444444 0 28.444444-28.444444l0-483.555556q0-28.444444-28.444444-28.444444l-28.444445 0q-28.444444 0-28.444444 28.444444l0 483.555556q0 28.444444 28.444444 28.444444ZM856.661333 620.088889l108.202667 35.157333a42.666667 42.666667 0 1 0 26.368-81.152l-108.202667-35.157333a42.666667 42.666667 0 0 0-26.368 81.152z"  horiz-adv-x="1024" />

    
    <glyph glyph-name="geci" unicode="&#59180;" d="M512 896c282.766222 0 512-229.233778 512-512s-229.233778-512-512-512S0 101.23377800000003 0 384 229.233778 896 512 896z m0-64C264.590222 832 64 631.409778 64 384S264.590222-64 512-64 960 136.59022200000004 960 384 759.409778 832 512 832z m262.826667-183.694222V168.96000000000004c0-29.411556-6.883556-43.804444-25.656889-51.313778-20.024889-8.135111-53.191111-8.760889-103.879111-8.760889-2.503111 12.515556-9.386667 34.417778-15.644445 46.307556 38.172444-1.877333 75.093333-1.251556 86.357334-0.625778 10.638222 0 14.392889 3.754667 14.392888 14.392889V605.127111h-300.373333V648.305778H774.826667z m-408.007111-163.953778v-263.452444l64.455111 45.056c3.128889-12.515556 10.012444-30.037333 13.767111-38.798223-98.929778-73.898667-118.414222-88.206222-128.142222-100.209777l-1.393778-1.792c-5.006222 9.386667-18.147556 25.031111-26.282667 31.914666 11.889778 9.386667 33.792 32.540444 33.792 63.829334v219.022222H230.4v44.430222h136.419556z m288.483555-43.804444v-198.997334H512v-41.927111h-41.927111v240.924445h185.230222z m-41.927111-40.049778H512v-118.272h101.376V400.497778z m71.964444 142.677333v-40.049778h-239.672888v40.049778h239.672888zM297.984 660.195556c33.166222-28.16 75.719111-66.958222 95.744-92.615112l-31.288889-32.540444c-18.773333 26.282667-60.700444 67.584-94.492444 96.369778z"  horiz-adv-x="1024" />

    
    <glyph glyph-name="lianjiezhong" unicode="&#59181;" d="M883.396923 597.858462a99.721846 99.721846 0 0 0-142.414769 0 103.187692 103.187692 0 0 0 0 144.423384 99.721846 99.721846 0 0 0 142.414769 0 103.187692 103.187692 0 0 0 0-144.423384zM285.144615 135.561846a87.276308 87.276308 0 0 1-124.652307 0 90.269538 90.269538 0 0 1 0-126.385231c34.422154-34.894769 90.230154-34.894769 124.652307 0a90.269538 90.269538 0 0 1 0 126.424616z m482.579693-108.307692a64.472615 64.472615 0 0 0 0 90.269538 62.345846 62.345846 0 0 0 89.00923 0c24.576-24.930462 24.576-65.378462 0-90.269538a62.345846 62.345846 0 0 0-89.00923 0zM294.006154 597.858462a103.187692 103.187692 0 0 1 0 144.423384 99.721846 99.721846 0 0 1-142.454154 0 103.187692 103.187692 0 0 1 0-144.423384 99.721846 99.721846 0 0 1 142.454154 0z m324.214154 196.01723c0-56.438154-45.095385-102.163692-100.745846-102.163692-55.611077 0-100.706462 45.725538-100.706462 102.163692C416.768 850.274462 461.863385 896 517.474462 896c55.650462 0 100.745846-45.725538 100.745846-102.124308zM517.474462 25.206154c-41.747692 0-75.539692-34.264615-75.539693-76.603077 0-42.299077 33.831385-76.603077 75.539693-76.603077 41.747692 0 75.539692 34.264615 75.539692 76.603077 0 42.299077-33.792 76.603077-75.539692 76.603077z m416.768 294.990769c-27.805538 0-50.333538 22.843077-50.333539 51.042462 0 28.199385 22.528 51.042462 50.333539 51.042461 27.844923 0 50.412308-22.843077 50.372923-51.042461 0-28.199385-22.567385-51.081846-50.372923-51.081847zM201.452308 371.2c0 56.398769-45.095385 102.124308-100.745846 102.124308C45.095385 473.403077 0 427.716923 0 371.239385c0-56.398769 45.095385-102.124308 100.706462-102.124308 55.650462 0 100.745846 45.686154 100.745846 102.124308z"  horiz-adv-x="1024" />

    
    <glyph glyph-name="qingchu" unicode="&#59182;" d="M568.948399-110.322312c29.496944 38.98795 227.075273 300.049689 258.580687 341.794362 50.13299 66.39766 15.358889 132.125831-13.389801 160.795758l-67.185296 66.712715 243.576234 242.867362a114.758471 114.758471 0 0 1-1.614652 163.473718 104.794884 104.794884 0 0 1-81.717168 30.402725c-28.236727-2.047852-55.607056-15.240744-76.873211-36.900717l-242.473544-241.804054-70.887182 70.414601c-34.852864 31.820468-119.956865 73.762051-192.813135 4.725812C298.277509 667.585747 108.299861 513.603035 11.538858 435.508989a30.954069 30.954069 0 0 1-2.44167-46.037286l509.403167-507.906659a31.111597 31.111597 0 0 1 50.408662 8.073262z m305.602518 925.550306c10.869368 11.105659 24.022878 17.721796 37.137007 18.666958 12.523402 0.905781 24.180405-3.544359 33.671412-12.838456 20.320992-20.596665 21.541827-54.740657 1.023926-75.612994l-243.458089-242.709835-71.044709 70.532746 242.631071 241.961581z m-424.456693-777.789913l128.227036 114.364653a30.954069 30.954069 0 0 1 2.441669 43.792526 31.150978 31.150978 0 0 1-43.871289 2.402288l-130.826232-116.688178-83.09553 82.898621 128.384563 114.207127a30.914688 30.914688 0 0 1 2.481051 43.713762 31.308505 31.308505 0 0 1-43.910671 2.520433l-130.98376-116.570033-78.684772 78.448482 128.148273 114.561562a30.914688 30.914688 0 0 1 2.362906 43.713763 31.19036 31.19036 0 0 1-43.87129 2.441669l-130.668705-116.806323-78.763536 78.566627c71.556672 57.812435 261.298029 211.480093 289.455993 238.220313 48.085138 45.525324 102.116924-0.236291 107.079027-4.607667l296.544711-294.496859c6.379846-6.419228 36.861335-40.287548 7.364391-79.393644-27.646001-36.625044-183.085838-241.961581-240.701365-318.165302l-87.11247 86.836798z"  horiz-adv-x="1024" />

    
    <glyph glyph-name="shuaxin" unicode="&#59183;" d="M848.738462 287.862154c-8.467692-178.097231-155.963077-319.881846-336.659693-319.881846-186.171077 0-337.132308 150.449231-337.132307 336.068923 0 180.145231 142.178462 327.168 320.787692 335.675077v-159.82277l353.122461 192.039385L495.734154 896v-160.098462C263.995077 727.315692 78.769231 537.245538 78.769231 304.128 78.769231 65.457231 272.777846-128 512.157538-128 746.062769-128 936.644923 56.713846 945.230769 287.862154h-96.492307z"  horiz-adv-x="1024" />

    
    <glyph glyph-name="bianji" unicode="&#59184;" d="M984.772923-55.729231H39.227077a35.603692 35.603692 0 0 1-35.288615-36.115692c0-20.086154 15.675077-36.155077 35.288615-36.155077h949.444923a35.603692 35.603692 0 0 1 35.328 36.155077c-3.938462 16.029538-19.613538 36.115692-39.227077 36.115692zM35.328 52.696615H204.012308c7.876923 0 19.613538 4.017231 23.552 12.051693L808.172308 659.062154c15.714462 16.068923 15.714462 36.155077 0 52.224L643.426462 883.948308c-15.675077 16.068923-35.288615 16.068923-51.003077 0l-117.681231-120.477539L11.776 289.634462c-7.876923-8.034462-11.776-16.068923-11.776-24.103385v-172.662154c0-8.034462 3.938462-20.086154 11.776-28.120615 3.938462-8.034462 15.675077-12.051692 23.552-12.051693zM615.975385 807.660308l117.68123-120.477539-66.678153-68.253538-117.720616 120.477538 66.717539 68.253539zM74.555077 249.462154L502.153846 687.182769l117.681231-120.477538L192.236308 128.984615H74.555077v120.516923z"  horiz-adv-x="1024" />

    


  </font>
</defs>
</svg>
